<svg xmlns="http://www.w3.org/2000/svg" width="41.135" height="5.293" viewBox="0 0 41.135 5.293">
  <path id="Path_21" data-name="Path 21" d="M.448,2.023l.42-.081.183-.022.868-.1c.781-.09.586-.07,1.368-.134l2.586-.213,0-.016,3.557-.183.008-.008c.024-.017,0-.014.148-.022L12.6,1.058c2.293-.14,1.72-.105,4.013-.235C18.794.7,18.248.727,20.431.632L34.677.018C35.149,0,35.032,0,35.5,0c9.541.07,1.031,1.023.382,1.041l-3.9.106c-.525.014-.394.008-.918.037l-1.634.083c-.868.044-.651.031-1.519.1L22.2,1.783c-1.772.131-1.329.094-3.1.261l-5.487.528-.267.029-1.163.127-.664.073c-2.2.241-1.651.179-3.852.428l-.006,0,0,0-1.283.154L.4,4.153,0,4.2Z" transform="translate(0.631 0.5)" fill="#02a576" stroke="rgba(0,0,0,0)" stroke-miterlimit="10" stroke-width="1"/>
</svg>
